<?xml version="1.0" encoding="utf-8"?>
<!-- Generator: Adobe Illustrator 23.0.6, SVG Export Plug-In . SVG Version: 6.00 Build 0)  -->
<svg version="1.1" id="Capa_1" xmlns="http://www.w3.org/2000/svg" xmlns:xlink="http://www.w3.org/1999/xlink" x="0px" y="0px"
	 viewBox="0 0 46 46" style="enable-background:new 0 0 46 46;" xml:space="preserve">
<style type="text/css">
	.st0{fill:#FE5F55;}
</style>
<g>
	<g>
		<path class="st0" d="M39.3,6.7c-9-9-23.5-9-32.5,0c-9,9-9,23.5,0,32.5c9,9,23.5,9,32.5,0C48.2,30.3,48.2,15.7,39.3,6.7z M26,33
			c0,1.7-1.3,3-3,3s-3-1.3-3-3V21c0-1.7,1.3-3,3-3s3,1.3,3,3V33z M22.9,15.9c-1.7,0-2.9-1.2-2.8-2.7c0-1.6,1.1-2.8,2.9-2.8
			c1.8,0,2.9,1.2,2.9,2.8C25.9,14.6,24.7,15.9,22.9,15.9z"/>
	</g>
</g>
</svg>
