<?xml version="1.0" encoding="utf-8"?>
<!-- Generator: Adobe Illustrator 23.0.6, SVG Export Plug-In . SVG Version: 6.00 Build 0)  -->
<svg version="1.1" id="Capa_1" xmlns="http://www.w3.org/2000/svg" xmlns:xlink="http://www.w3.org/1999/xlink" x="0px" y="0px"
	 viewBox="0 0 27.9 27.9" style="enable-background:new 0 0 27.9 27.9;" xml:space="preserve">
<style type="text/css">
	.st0{fill:#577399;}
</style>
<g>
	<g>
		<path class="st0" d="M27.6,25.8c0-0.5-0.1-1.1-0.5-1.5l-4.5-4.5c-0.4-0.4-0.9-0.6-1.5-0.6l-1.8-1.8c3.4-4.2,3.1-10.4-0.8-14.4
			c-4.2-4.2-11.1-4.2-15.3,0c-4.2,4.2-4.2,11.1,0,15.3c3.9,3.9,10.1,4.2,14.4,0.8l1.8,1.8c0,0.5,0.2,1.1,0.6,1.5l4.5,4.5
			c0.4,0.4,1,0.6,1.5,0.5c0.5,0.4,1.2,0.4,1.7-0.1C28,27,28,26.3,27.6,25.8z M16.7,16.7c-3.2,3.2-8.5,3.2-11.7,0
			C1.7,13.5,1.7,8.2,5,5s8.5-3.2,11.7,0C19.9,8.2,19.9,13.5,16.7,16.7z"/>
		<path class="st0" d="M7.9,10.4v4.5h5.7v-4.5L10.7,8L7.9,10.4z M10.4,13.5H9.3v-1.2h1.2V13.5z M10.4,11.7H9.3v-1.2h1.2V11.7z
			 M11,10.5h1.2v1.2H11V10.5z M11,12.3h1.2v1.2H11V12.3z"/>
		<path class="st0" d="M11.1,5.7c-0.2-0.2-0.5-0.2-0.8,0L6.1,9.3C5.8,9.5,5.8,9.9,6,10.1c0.1,0.1,0.3,0.2,0.5,0.2
			c0.1,0,0.3,0,0.4-0.1L10.7,7l3.9,3.3c0.3,0.2,0.6,0.2,0.8-0.1c0.2-0.3,0.2-0.6-0.1-0.8L11.1,5.7z"/>
	</g>
</g>
</svg>
