<?xml version="1.0" encoding="utf-8"?>
<!-- Generator: Adobe Illustrator 23.0.6, SVG Export Plug-In . SVG Version: 6.00 Build 0)  -->
<svg version="1.1" id="Layer_1" xmlns="http://www.w3.org/2000/svg" xmlns:xlink="http://www.w3.org/1999/xlink" x="0px" y="0px"
	 viewBox="0 0 512 512" style="enable-background:new 0 0 512 512;" xml:space="preserve">
<style type="text/css">
	.st0{fill:#969696;}
	.st1{fill:#B9B9B9;}
	.st2{fill:#D6EFFF;}
	.st3{fill:#FFFFFF;}
	.st4{fill:#737373;}
	.st5{fill:#4D4D4D;}
	.st6{fill:#FFB649;}
	.st7{fill:#FED99B;}
</style>
<path class="st0" d="M377,0h-33.8v455.7H377c18.6,0,33.8-15.2,33.8-33.8V33.8C410.7,15.2,395.5,0,377,0z"/>
<path class="st1" d="M311.4,256L377,33.8C377,15.2,361.8,0,343.2,0h-25.3l-90,23.7L137.8,0H78.8C60.2,0,45,15.2,45,33.8V422
	c0,18.6,15.2,33.8,33.8,33.8h264.4c18.6,0,33.8-15.2,33.8-33.8L311.4,256z"/>
<polygon class="st2" points="377,33.8 377,422 343.2,422 275.7,227.9 343.2,33.8 "/>
<rect x="78.8" y="33.8" class="st3" width="264.4" height="388.2"/>
<polygon class="st4" points="301,0 309.5,56.3 275.7,56.3 253.2,28.1 275.7,0 "/>
<rect x="146.3" class="st0" width="129.4" height="56.3"/>
<path class="st5" d="M292.6,109.7H163.2c-14,0-25.3-11.4-25.3-25.3V0h16.9v84.4c0,4.7,3.8,8.4,8.4,8.4h129.4c4.7,0,8.4-3.8,8.4-8.4
	V0h16.9v84.4C317.9,98.4,306.5,109.7,292.6,109.7z"/>
<g>
	<path class="st1" d="M309.5,191.3H146.3c-4.7,0-8.4-3.8-8.4-8.4s3.8-8.4,8.4-8.4h163.2c4.7,0,8.4,3.8,8.4,8.4
		C317.9,187.5,314.1,191.3,309.5,191.3z"/>
	<path class="st1" d="M309.5,236.3H146.3c-4.7,0-8.4-3.8-8.4-8.4s3.8-8.4,8.4-8.4h163.2c4.7,0,8.4,3.8,8.4,8.4
		C317.9,232.5,314.1,236.3,309.5,236.3z"/>
	<path class="st1" d="M227.9,281.3h-81.6c-4.7,0-8.4-3.8-8.4-8.4s3.8-8.4,8.4-8.4h81.6c4.7,0,8.4,3.8,8.4,8.4
		C236.3,277.5,232.5,281.3,227.9,281.3z"/>
</g>
<path class="st6" d="M354.5,286.9V512c62.1,0,112.5-50.4,112.5-112.5S416.6,286.9,354.5,286.9z"/>
<path class="st7" d="M354.5,286.9c43.5,0,78.8,50.4,78.8,112.5S398,512,354.5,512c-62.1,0-112.5-50.4-112.5-112.5
	S292.3,286.9,354.5,286.9z"/>
<path class="st3" d="M410.7,382.6h-39.4v-39.4c0-9.3-7.6-16.9-16.9-16.9s-16.9,7.6-16.9,16.9v39.4h-39.4c-9.3,0-16.9,7.6-16.9,16.9
	s7.6,16.9,16.9,16.9h39.4v39.4c0,9.3,7.6,16.9,16.9,16.9s16.9-7.6,16.9-16.9v-39.4h39.4c9.3,0,16.9-7.6,16.9-16.9
	S420,382.6,410.7,382.6z"/>
</svg>
