<?xml version="1.0" encoding="utf-8"?>
<!-- Generator: Adobe Illustrator 23.0.6, SVG Export Plug-In . SVG Version: 6.00 Build 0)  -->
<svg version="1.1" id="Capa_1" xmlns="http://www.w3.org/2000/svg" xmlns:xlink="http://www.w3.org/1999/xlink" x="0px" y="0px"
	 viewBox="0 0 512 512" style="enable-background:new 0 0 512 512;" xml:space="preserve">
<style type="text/css">
	.st0{fill:#D6EFFF;}
	.st1{fill:#FE654F;}
	.st2{fill:#FFB649;}
	.st3{fill:#FFFFFF;}
</style>
<circle class="st0" cx="256" cy="256" r="256"/>
<path class="st1" d="M136.7,0.1C62.8,1.7,2.4,61.5,0.1,135.3C-1.1,172,11.9,205.6,34,231.2c9.9,11.5,12.8,27.5,7.7,41.9l-9.2,25.7
	c-3,8.4,6.7,15.5,13.8,10.2l32.6-24.4c9.7-7.3,22-10,33.9-7.6c12.4,2.4,25.3,3.2,38.7,2.1c70.1-5.8,125.5-63.8,128-134.1
	C282.3,64.4,217-1.6,136.7,0.1z"/>
<path class="st2" d="M454.8,359.8c-11.8,14.3-15.6,33.6-9.4,51l4.4,12.4c-5.6,6.5-11.5,12.7-17.7,18.5l-27.5-20.5
	c-11.6-8.6-26.2-12.1-40.4-9.4c-9.2,1.7-19.4,3.2-26.9,3.2C253.3,415,185,346.8,185,262.6c0-84.1,68.3-152.4,152.4-152.4
	c84.2,0,152.4,68.2,152.4,152.4C489.8,299.5,476.7,333.4,454.8,359.8z"/>
<g>
	<path class="st3" d="M358.9,346.9c0,11.5-9.8,21.7-21.4,21.7c-12.4,0-21.7-10.1-21.7-21.7c0-11.8,9.3-21.7,21.7-21.7
		C349.1,325.3,358.9,335.1,358.9,346.9z M353.6,293.5c0,8.7-9.6,12.4-16.3,12.4c-9,0-16.6-3.7-16.6-12.4c0-33.5-3.9-81.6-3.9-115
		c0-11,9-17.2,20.5-17.2c11,0,20.2,6.2,20.2,17.2C357.5,211.9,353.6,260,353.6,293.5z"/>
	<path class="st3" d="M163.8,134.4c-14.2,11.1-14.4,18.8-14.4,32.2c0,4.9-2.6,10.6-15.2,10.6c-10.6,0-14.2-3.9-14.2-17.3
		c0-22.2,9.8-32.8,17.3-39.2c8.5-7.2,23-15.2,23-29.1c0-11.9-10.3-17.5-23.2-17.5c-26.3,0-20.6,19.9-34.6,19.9
		c-7,0-15.5-4.6-15.5-14.7c0-13.9,16-34.6,50.8-34.6c33,0,54.9,18.3,54.9,42.6S170.7,129,163.8,134.4z M154.2,214.9
		c0,10.6-8.8,19.9-19.9,19.9s-19.6-9.3-19.6-19.9c0-10.8,8.8-19.9,19.6-19.9S154.2,204.1,154.2,214.9z"/>
</g>
</svg>
