<?xml version="1.0" encoding="utf-8"?>
<!-- Generator: Adobe Illustrator 23.0.6, SVG Export Plug-In . SVG Version: 6.00 Build 0)  -->
<svg version="1.1" id="Layer_1" xmlns="http://www.w3.org/2000/svg" xmlns:xlink="http://www.w3.org/1999/xlink" x="0px" y="0px"
	 viewBox="0 0 512 512" style="enable-background:new 0 0 512 512;" xml:space="preserve">
<style type="text/css">
	.st0{fill:#84B75B;}
	.st1{fill:#69A833;}
	.st2{fill:#A0D37D;}
	.st3{fill:#EBEEF2;}
	.st4{fill:#D3D8DF;}
	.st5{fill:#D6EFFF;}
	.st6{fill:#5F9EEB;}
	.st7{fill:#495266;}
	.st8{fill:#383F51;}
	.st9{fill:#7B8C98;}
	.st10{fill:#627687;}
	.st11{fill:#455E6D;}
	.st12{fill:#FE654F;}
	.st13{opacity:0.53;fill:#90C5FF;}
</style>
<path class="st0" d="M441.6,350.2c0,5.7-0.8,11.2-2.3,16.4c-0.9,3.1-3.7,5.2-6.9,5.2H328.2c-2.7-6.7-4.1-14-4.1-21.6
	c0-30.8,23.7-56,53.8-58.5c1.6-0.1,3.3-0.2,5-0.2C415.3,291.4,441.6,317.7,441.6,350.2z"/>
<path class="st1" d="M409.3,357.7c0,4.8-0.7,9.5-2.1,14h-78.9c-2.7-6.7-4.1-14-4.1-21.6c0-30.8,23.7-56,53.8-58.5v21.8
	C396.1,319.9,409.3,337.3,409.3,357.7z"/>
<path class="st2" d="M185.4,371.8c2.8-7,4.2-14.7,4.1-22.8c-0.6-30.6-25-55.9-55.6-57.5C100,289.7,72,316.7,72,350.2
	c0,5.7,0.8,11.2,2.3,16.4c0.9,3.1,3.7,5.2,6.9,5.2H185.4z"/>
<path class="st3" d="M369,170.1v201.7H138c-4,0-7.2-3.2-7.2-7.2V170.1l119.1-107L369,170.1z"/>
<path class="st4" d="M189.3,371.8L369,192.1v179.6H189.3z"/>
<path class="st5" d="M336.8,255.1h-13.8c-4.2,0-7.6,3.4-7.6,7.6v65h29v-65C344.5,258.5,341,255.1,336.8,255.1z"/>
<path class="st5" d="M184.3,327.7v-65c0-4.2-3.4-7.6-7.6-7.6h-13.7c-4.2,0-7.6,3.4-7.6,7.6v65"/>
<path class="st6" d="M369,371.8H138c-4,0-7.2-3.2-7.2-7.2v-36.8H369V371.8z"/>
<path class="st7" d="M369,327.7v44H138c-4,0-7.2-3.2-7.2-7.2v-36.8H369z"/>
<path class="st8" d="M369,327.7v44H189.3l44-44H369z"/>
<path class="st9" d="M287.2,262.8v109h-74.7v-109c0-4.2,3.4-7.6,7.6-7.6h59.4C283.8,255.1,287.2,258.5,287.2,262.8z"/>
<path class="st10" d="M287.2,273.9v97.9h-74.7v-23.2L287.2,273.9z"/>
<path class="st4" d="M369,170.1v47.3L249.9,110.5l-119.1,107v-47.3l119.1-107L369,170.1z"/>
<path class="st8" d="M380.3,215.6L249.9,98.5L119.4,215.6c-3.1,2.8-8,2.6-10.8-0.6l-12.8-14.2c-2.8-3.1-2.6-8,0.6-10.8l142-127.5
	c6.5-5.9,16.4-5.9,23,0l142,127.5c3.1,2.8,3.4,7.6,0.6,10.8L391.1,215C388.3,218.2,383.5,218.4,380.3,215.6z"/>
<path class="st11" d="M268.9,325.3c-3.1,0-5.6-2.5-5.6-5.6v-6.3c0-3.1,2.5-5.6,5.6-5.6c3.1,0,5.6,2.5,5.6,5.6v6.3
	C274.5,322.8,272,325.3,268.9,325.3z"/>
<path class="st12" d="M280.4,194.5c0,16.9-13.7,30.5-30.5,30.5c-16.9,0-30.5-13.7-30.5-30.5c0-16.9,13.7-30.5,30.5-30.5
	C266.7,164,280.4,177.7,280.4,194.5z"/>
<path class="st2" d="M399.4,366.2c0.8-3.4,1.1-6.9,0.9-10.5c-1-19.5-17-35.2-36.5-36c-21.7-0.9-39.6,16.5-39.6,38.1
	c0,4.9,0.9,9.7,2.7,14h65.6C395.7,371.8,398.7,369.5,399.4,366.2z"/>
<circle class="st13" cx="296.8" cy="304.8" r="88.6"/>
<path class="st8" d="M198,304.8c0,26.4,10.3,51.2,28.9,69.9c18.7,18.7,43.5,28.9,69.9,28.9c22.9,0,44.7-7.8,62.2-22l16.1,16.1
	l14.6-14.6L373.6,367c14.3-17.5,22-39.3,22-62.2c0-26.4-10.3-51.2-28.9-69.9C348,216.3,323.2,206,296.8,206s-51.2,10.3-69.9,28.9
	C208.3,253.6,198,278.4,198,304.8z M218.4,304.8c0-20.9,8.2-40.6,23-55.4c14.8-14.8,34.5-23,55.4-23c20.9,0,40.6,8.2,55.4,23
	c14.8,14.8,23,34.5,23,55.4c0,20.9-8.2,40.6-23,55.4c-14.8,14.8-34.5,23-55.4,23c-20.9,0-40.6-8.2-55.4-23
	C226.6,345.4,218.4,325.7,218.4,304.8z"/>
<rect x="410.6" y="381.3" transform="matrix(0.7071 -0.7071 0.7071 0.7071 -183.8948 432.6466)" class="st8" width="39.4" height="113.9"/>
<rect x="366.5" y="388.9" transform="matrix(0.7071 -0.7071 0.7071 0.7071 -165.6383 388.5714)" class="st12" width="39.4" height="10.7"/>
<rect x="454.7" y="477" transform="matrix(0.7071 -0.7071 0.7071 0.7071 -202.1513 476.7218)" class="st12" width="39.4" height="10.7"/>
</svg>
