<?xml version="1.0" encoding="utf-8"?>
<!-- Generator: Adobe Illustrator 23.0.6, SVG Export Plug-In . SVG Version: 6.00 Build 0)  -->
<svg version="1.1" id="Layer_1" xmlns="http://www.w3.org/2000/svg" xmlns:xlink="http://www.w3.org/1999/xlink" x="0px" y="0px"
	 viewBox="0 0 512 512" style="enable-background:new 0 0 512 512;" xml:space="preserve">
<style type="text/css">
	.st0{fill:#EBEEF2;}
	.st1{fill:#D3D8DF;}
	.st2{fill:#5F9EEB;}
	.st3{fill:#495266;}
	.st4{fill:#383F51;}
	.st5{fill:#7B8C98;}
	.st6{fill:#627687;}
	.st7{fill:#455E6D;}
	.st8{fill:#FFB649;}
	.st9{fill:#FED99B;}
</style>
<path class="st0" d="M353.4,134.1v201.7h-231c-4,0-7.2-3.2-7.2-7.2V134.1l119.1-107L353.4,134.1z"/>
<path class="st1" d="M173.7,335.8l179.6-179.6v179.6H173.7z"/>
<path class="st2" d="M353.4,335.8h-231c-4,0-7.2-3.2-7.2-7.2v-36.8h238.2V335.8z"/>
<path class="st3" d="M353.4,291.7v44h-231c-4,0-7.2-3.2-7.2-7.2v-36.8H353.4z"/>
<path class="st4" d="M353.4,291.7v44H173.7l44-44H353.4z"/>
<path class="st5" d="M271.6,226.8v109h-74.7v-109c0-4.2,3.4-7.6,7.6-7.6h59.4C268.2,219.1,271.6,222.5,271.6,226.8z"/>
<path class="st6" d="M271.6,237.9v97.9h-74.7v-23.2L271.6,237.9z"/>
<path class="st1" d="M353.4,134.1v47.3L234.3,74.5l-119.1,107v-47.3l119.1-107L353.4,134.1z"/>
<path class="st4" d="M364.7,179.6L234.3,62.5L103.8,179.6c-3.1,2.8-8,2.6-10.8-0.6l-12.8-14.2c-2.8-3.1-2.6-8,0.6-10.8l142-127.5
	c6.5-5.9,16.4-5.9,23,0l142,127.5c3.1,2.8,3.4,7.6,0.6,10.8L375.5,179C372.7,182.2,367.9,182.4,364.7,179.6z"/>
<path class="st7" d="M253.3,289.3c-3.1,0-5.6-2.5-5.6-5.6v-6.3c0-3.1,2.5-5.6,5.6-5.6c3.1,0,5.6,2.5,5.6,5.6v6.3
	C258.9,286.8,256.4,289.3,253.3,289.3z"/>
<path class="st8" d="M401.3,350.2L243.5,221.1c-3.1-2.5-7.6-2-10.1,1c-1,1.3-1.6,2.9-1.6,4.5v215.2c0,3.2,2.1,6,5.1,6.9
	c0.7,0.2,1.4,0.3,2.1,0.3c2.4,0,4.6-1.2,6-3.2l55.3-82.9h96.6c4,0,7.2-3.2,7.2-7.2C403.9,353.6,402.9,351.6,401.3,350.2z"/>
<g>
	<path class="st9" d="M238.9,176.5c-4,0-7.2-3.2-7.2-7.2v-57.4c0-4,3.2-7.2,7.2-7.2s7.2,3.2,7.2,7.2v57.4
		C246.1,173.2,242.9,176.5,238.9,176.5z"/>
	<path class="st9" d="M181.6,233.8h-57.4c-4,0-7.2-3.2-7.2-7.2s3.2-7.2,7.2-7.2h57.4c4,0,7.2,3.2,7.2,7.2
		C188.7,230.6,185.5,233.8,181.6,233.8z"/>
	<path class="st9" d="M353.7,233.8h-57.4c-4,0-7.2-3.2-7.2-7.2s3.2-7.2,7.2-7.2h57.4c4,0,7.2,3.2,7.2,7.2
		C360.9,230.6,357.6,233.8,353.7,233.8z"/>
	<path class="st9" d="M198.4,193.3c-1.9,0-3.7-0.7-5.1-2.1l-40.6-40.5c-2.8-2.8-2.8-7.4,0-10.2c2.8-2.8,7.4-2.8,10.2,0l40.5,40.6
		c2.8,2.8,2.8,7.3,0,10.1C202.1,192.5,200.3,193.3,198.4,193.3L198.4,193.3L198.4,193.3z"/>
	<path class="st9" d="M157.8,315c-4,0-7.2-3.2-7.2-7.2c0-1.9,0.8-3.7,2.1-5.1l40.6-40.6c2.8-2.8,7.4-2.7,10.1,0.2
		c2.7,2.8,2.7,7.2,0,10l-40.5,40.6C161.5,314.2,159.7,315,157.8,315z"/>
	<path class="st9" d="M279.5,193.3c-4,0-7.2-3.2-7.2-7.2c0-1.9,0.8-3.7,2.1-5.1l40.5-40.6c2.8-2.8,7.4-2.7,10.1,0.2
		c2.7,2.8,2.7,7.2,0,10l-40.5,40.6C283.2,192.5,281.4,193.3,279.5,193.3z"/>
</g>
</svg>
