<?xml version="1.0" encoding="utf-8"?>
<!-- Generator: Adobe Illustrator 23.0.6, SVG Export Plug-In . SVG Version: 6.00 Build 0)  -->
<svg version="1.1" id="Layer_1" xmlns="http://www.w3.org/2000/svg" xmlns:xlink="http://www.w3.org/1999/xlink" x="0px" y="0px"
	 viewBox="0 0 464 464" style="enable-background:new 0 0 464 464;" xml:space="preserve">
<style type="text/css">
	.st0{fill:#E6E7E8;}
	.st1{fill:#FED99B;}
	.st2{fill:#8B5E3C;}
	.st3{fill:#FE654F;}
	.st4{fill:#FF6243;}
	.st5{fill:#F1F2F2;}
	.st6{fill:#FFB649;}
	.st7{fill:#D1D3D4;}
	.st8{fill:#754C29;}
	.st9{fill:#898890;}
	.st10{fill:#ACABB1;}
	.st11{fill:#787680;}
</style>
<path class="st0" d="M327,32v176l-124.6,88c-6.3,4.5-7.9,13.1-3.7,19.6c2.7,4,7.2,6.3,12,6.3c3,0,6-1,8.4-2.7l27.9-20.5V416H39
	c-17.7,0-32-14.3-32-32V32C7,14.3,21.3,0,39,0h256C312.7,0,327,14.3,327,32z"/>
<path class="st1" d="M407,298.7V424c0,4.4-3.6,8-8,8H255c-4.4,0-8-3.6-8-8V298.7l80-58.7L407,298.7z"/>
<path class="st0" d="M351,368h32v32h-32V368z"/>
<path class="st2" d="M279,368h48v64h-48V368z"/>
<path class="st1" d="M407,216v48.5l-32-22.6V216H407z"/>
<path class="st3" d="M351,312c0,13.3-10.7,24-24,24s-24-10.7-24-24s10.7-24,24-24S351,298.7,351,312z"/>
<path class="st4" d="M279,0v64l-24-24l-24,24V0H279z"/>
<path class="st5" d="M55,288h64v64H55V288z"/>
<path class="st1" d="M119,200v48H55v-64h64V200z"/>
<path class="st1" d="M119,88v48H55V72h64V88z"/>
<path class="st6" d="M335,245.8l-72,52.9l-16,11.8v-11.8l80-58.7L335,245.8z"/>
<path class="st6" d="M407,253.2v11.3l-32-22.6v-11.3l16,11.3L407,253.2z"/>
<path class="st7" d="M351,368h16v32h-16V368z"/>
<path class="st8" d="M279,368h16v64h-16V368z"/>
<path class="st8" d="M279,368h48v8h-48V368z"/>
<path class="st4" d="M457.7,307.7c0,5.4-3,10.3-7.9,12.8c-4.8,2.4-10.6,2-14.9-1.2L407,298.7L327,240l-80,58.7l-27.9,20.5
	c-2.4,1.8-5.4,2.7-8.4,2.7c-4.8,0-9.3-2.4-12-6.3c-4.3-6.5-2.6-15.1,3.7-19.6L327,208l48,33.9l32,22.6l44.6,31.5
	C455.4,298.7,457.7,303,457.7,307.7z"/>
<path class="st9" d="M119,144H55c-4.4,0-8-3.6-8-8V72c0-4.4,3.6-8,8-8h64c4.4,0,8,3.6,8,8v64C127,140.4,123.4,144,119,144z M63,128
	h48V80H63V128z"/>
<path class="st4" d="M95,120c-2.1,0-4.2-0.8-5.7-2.3l-16-16l11.3-11.3L95,100.7l42.3-42.3l11.3,11.3l-48,48
	C99.2,119.2,97.1,120,95,120z"/>
<path class="st9" d="M119,256H55c-4.4,0-8-3.6-8-8v-64c0-4.4,3.6-8,8-8h64c4.4,0,8,3.6,8,8v64C127,252.4,123.4,256,119,256z M63,240
	h48v-48H63V240z"/>
<path class="st4" d="M95,232c-2.1,0-4.2-0.8-5.7-2.3l-16-16l11.3-11.3L95,212.7l42.3-42.3l11.3,11.3l-48,48
	C99.2,231.2,97.1,232,95,232z"/>
<path class="st9" d="M119,360H55c-4.4,0-8-3.6-8-8v-64c0-4.4,3.6-8,8-8h64c4.4,0,8,3.6,8,8v64C127,356.4,123.4,360,119,360z M63,344
	h48v-48H63V344z"/>
<path class="st10" d="M159,112h80v16h-80V112z"/>
<path class="st11" d="M159,80h48v16h-48V80z"/>
<path class="st10" d="M159,224h80v16h-80V224z"/>
<path class="st11" d="M159,192h48v16h-48V192z"/>
<path class="st8" d="M383,408h-32c-4.4,0-8-3.6-8-8v-32c0-4.4,3.6-8,8-8h32c4.4,0,8,3.6,8,8v32C391,404.4,387.4,408,383,408z
	 M359,392h16v-16h-16V392z"/>
</svg>
