<?xml version="1.0" encoding="utf-8"?>
<!-- Generator: Adobe Illustrator 23.0.6, SVG Export Plug-In . SVG Version: 6.00 Build 0)  -->
<svg version="1.1" id="Layer_1" xmlns="http://www.w3.org/2000/svg" xmlns:xlink="http://www.w3.org/1999/xlink" x="0px" y="0px"
	 viewBox="0 0 512 512" style="enable-background:new 0 0 512 512;" xml:space="preserve">
<style type="text/css">
	.st0{fill:#5B5D6E;}
	.st1{fill:#707487;}
	.st2{fill:#FFB649;}
	.st3{fill:#FED99B;}
	.st4{fill:#D7DEED;}
	.st5{fill:#C7CFE2;}
	.st6{fill:#464655;}
</style>
<path class="st0" d="M348.7,304.5h-97.1c-7.3,0-13.2-5.9-13.2-13.2l0,0c0-7.3,5.9-13.2,13.2-13.2h97.1c7.3,0,13.2,5.9,13.2,13.2l0,0
	C361.9,298.6,356,304.6,348.7,304.5z"/>
<path class="st1" d="M20.1,138.2c-3.5-4-3.3-10.1,0.5-13.8L46,99c3.4-3.5,3.5-9.1,0-12.5s-9.1-3.4-12.5,0L8.1,111.9
	c-10.3,10.3-10.8,26.9-1.3,37.9l178,204.7l13.3-11.6L20.1,138.2z"/>
<path class="st2" d="M375.7,304.6h-151c-8.1,0-15.7,3.6-20.7,9.9l-27.4,34.2h247.2l-27.4-34.2C391.3,308.2,383.7,304.6,375.7,304.6z
	"/>
<rect x="141.2" y="331" class="st3" width="317.8" height="88.3"/>
<rect x="141.2" y="401.7" class="st2" width="317.8" height="17.7"/>
<circle class="st4" cx="459" cy="375.2" r="44.1"/>
<path class="st1" d="M361.9,278.1H238.4c-9.8,0-17.7-7.9-17.7-17.7v-42.1c0-10.5,9.1-18.7,19.6-17.5L356,213.7
	c13.5,1.5,23.6,12.8,23.6,26.3v20.4C379.6,270.2,371.7,278.1,361.9,278.1z"/>
<path class="st0" d="M459,428.2c-29.2,0-53-23.8-53-53s23.8-53,53-53c29.2,0,53,23.8,53,53C512,404.4,488.2,428.1,459,428.2z
	 M459,339.9c-19.5,0-35.3,15.8-35.3,35.3s15.8,35.3,35.3,35.3s35.3-15.8,35.3-35.3S478.5,339.9,459,339.9z"/>
<circle class="st5" cx="459" cy="375.2" r="17.7"/>
<circle class="st4" cx="141.2" cy="375.2" r="44.1"/>
<path class="st0" d="M141.2,428.2c-29.2,0-53-23.8-53-53s23.8-53,53-53s53,23.8,53,53C194.2,404.4,170.4,428.1,141.2,428.2z
	 M141.2,339.9c-19.5,0-35.3,15.8-35.3,35.3s15.8,35.3,35.3,35.3s35.3-15.8,35.3-35.3S160.7,339.9,141.2,339.9z"/>
<circle class="st5" cx="141.2" cy="375.2" r="17.7"/>
<circle class="st6" cx="300.1" cy="278.1" r="13.2"/>
</svg>
