<?xml version="1.0" encoding="utf-8"?>
<!-- Generator: Adobe Illustrator 23.0.6, SVG Export Plug-In . SVG Version: 6.00 Build 0)  -->
<svg version="1.1" id="Layer_1" xmlns="http://www.w3.org/2000/svg" xmlns:xlink="http://www.w3.org/1999/xlink" x="0px" y="0px"
	 viewBox="0 0 1152 576" style="enable-background:new 0 0 1152 576;" xml:space="preserve">
<style type="text/css">
	.st0{fill:#3A3F51;}
	.st1{fill:#F26552;}
	.st2{fill:#393F51;}
</style>
<path class="st0" d="M100.4,294.5c-2.5-2.9-3.8-7-3.8-12.4c0-5.5,1.3-9.6,3.8-12.5c2.5-2.9,6.2-4.3,11.1-4.3c4.8,0,8.5,1.4,11,4.3
	c2.5,2.9,3.8,7,3.8,12.5c0,5.5-1.3,9.6-3.8,12.5c-2.5,2.9-6.2,4.3-11,4.3C106.6,298.8,102.9,297.4,100.4,294.5z"/>
<path class="st0" d="M67,294.5c-2.5-2.9-3.8-7-3.8-12.4c0-5.5,1.3-9.6,3.8-12.5c2.5-2.9,6.2-4.3,11.1-4.3c4.8,0,8.5,1.4,11,4.3
	c2.5,2.9,3.8,7,3.8,12.5c0,5.5-1.3,9.6-3.8,12.5c-2.5,2.9-6.2,4.3-11,4.3C73.2,298.8,69.5,297.4,67,294.5z"/>
<g>
	<g>
		<path class="st1" d="M94.1,180.4c-47,0-79.3,33.5-79.3,84.8v16.3c0,2.9,2.3,5.2,5.1,5.2h29.7c2.8,0,5.1-2.3,5.1-5.2v-16.3
			c0-23.7,17.6-42.9,39.3-42.9s39.3,19.2,39.3,42.9v16.3c0,2.9,2.3,5.2,5.1,5.2h29.7c2.8,0,5.1-2.3,5.1-5.2v-16.3
			C173.4,213.8,141.1,180.4,94.1,180.4z"/>
	</g>
</g>
<path class="st1" d="M195.3,326.4V216.9c0-2.2,0.5-3.8,1.5-4.8c1-1,2.6-1.6,4.7-1.6h32c14.4,0,25,2.6,32,7.9
	c6.9,5.3,10.4,13.2,10.4,23.8c0,6.7-1.8,12.4-5.3,17.2c-3.6,4.8-8.4,8.4-14.6,10.9v0.7c2.5,0.9,4.9,3,7.2,6.1
	c2.3,3.2,4.4,7,6.2,11.6l14.6,36.5c0.5,1.6,0.7,2.6,0.7,2.9c0,2.2-3.1,3.3-9.3,3.3h-5.2c-5.1,0-8-1.1-9-3.3l-13.4-33.8
	c-2.1-4.7-4.5-8-7.3-9.8c-2.8-1.8-7.1-2.8-12.8-2.8h-9.8v44.6c0,3.3-3,5-9.1,5h-4.3C198.3,331.4,195.3,329.8,195.3,326.4z
	 M236.4,262.4c4.4,0,8.2-1.7,11.4-5.1c3.2-3.4,4.8-7.4,4.8-12c0-4.9-1.6-8.8-4.7-11.5c-3.1-2.7-7.4-4-12.7-4h-17.4v32.6H236.4z"/>
<path class="st1" d="M302.1,320.4c-7-7.9-10.5-19.4-10.5-34.3c0-15,3.5-26.5,10.5-34.5c7-7.9,17.2-11.9,30.7-11.9
	c13.3,0,23.5,4,30.4,11.9c6.9,7.9,10.4,19.4,10.4,34.5c0,15-3.5,26.5-10.4,34.4c-6.9,7.9-17.1,11.8-30.4,11.8
	C319.3,332.3,309.1,328.3,302.1,320.4z M346.8,307.8c3-4.8,4.6-12,4.6-21.8c0-9.6-1.5-16.9-4.6-21.6c-3-4.8-7.8-7.1-14.2-7.1
	c-6.4,0-11.2,2.4-14.3,7.1c-3.1,4.8-4.7,12-4.7,21.6c0,9.8,1.6,17,4.7,21.8c3.1,4.8,7.9,7.1,14.3,7.1
	C339,314.9,343.8,312.5,346.8,307.8z"/>
<path class="st1" d="M396.2,320.4c-7-7.9-10.5-19.4-10.5-34.3c0-15,3.5-26.5,10.5-34.5c7-7.9,17.2-11.9,30.7-11.9
	c13.3,0,23.5,4,30.4,11.9c6.9,7.9,10.4,19.4,10.4,34.5c0,15-3.5,26.5-10.4,34.4c-6.9,7.9-17.1,11.8-30.4,11.8
	C413.4,332.3,403.2,328.3,396.2,320.4z M440.9,307.8c3-4.8,4.6-12,4.6-21.8c0-9.6-1.5-16.9-4.6-21.6c-3-4.8-7.8-7.1-14.2-7.1
	c-6.4,0-11.2,2.4-14.3,7.1c-3.1,4.8-4.7,12-4.7,21.6c0,9.8,1.6,17,4.7,21.8c3.1,4.8,7.9,7.1,14.3,7.1
	C433.1,314.9,437.9,312.5,440.9,307.8z"/>
<path class="st1" d="M602.9,267.7v58.7c0,3.3-3,5-9.1,5h-3.4c-6.1,0-9.1-1.7-9.1-5v-55.8c0-8.5-4.1-12.7-12.4-12.7
	c-3.7,0-6.9,1.1-9.6,3.4c-2.8,2.2-4.9,4.7-6.5,7.3v57.9c0,3.3-3,5-9.1,5h-3.3c-3.2,0-5.5-0.4-7-1.2c-1.4-0.8-2.2-2.1-2.2-3.8v-55.8
	c0-8.5-4.1-12.7-12.4-12.7c-3.9,0-7.3,1.2-10.2,3.7c-2.9,2.5-4.9,4.8-6,7v57.9c0,3.3-3,5-9.1,5h-3.4c-6.1,0-9.1-1.7-9.1-5v-56.5
	c0-7.7-0.3-13.3-1-16.9c-0.7-3.6-1-5.7-1-6.5c0-1.6,1.9-2.8,5.7-3.7s7.2-1.3,10.2-1.3c1.8,0,3.2,0.8,4,2.4c0.8,1.6,1.4,3.3,1.8,5.1
	c0.4,1.8,0.7,3,0.8,3.7c3-3.7,6.7-6.7,11.3-9.2c4.5-2.5,9.4-3.7,14.6-3.7c12.1,0,19.8,4.5,23.3,13.4c3.1-3.8,7-7,11.8-9.6
	c4.8-2.6,9.8-3.9,15.1-3.9C594.2,239.8,602.9,249.1,602.9,267.7z"/>
<path class="st2" d="M673.9,331.1l-44.6-110.5h-0.7c0.4,6.8,0.7,13.7,0.7,20.8v89.7h-8V211.5h12.9l42.4,105.2h0.5l42.4-105.2h12.6
	v119.7h-8.4v-90.7c0-6.3,0.3-12.9,1-19.6H724l-44.8,110.3H673.9z"/>
<path class="st2" d="M809.6,331.1l-2-14.1h-0.7c-4.5,5.7-9.1,9.8-13.8,12.2c-4.7,2.4-10.3,3.6-16.7,3.6c-8.7,0-15.5-2.2-20.4-6.7
	c-4.9-4.5-7.3-10.7-7.3-18.6c0-8.7,3.6-15.4,10.8-20.2s17.7-7.3,31.4-7.6l16.9-0.5v-5.9c0-8.5-1.7-14.8-5.2-19.2
	c-3.4-4.3-9-6.5-16.6-6.5c-8.2,0-16.8,2.3-25.6,6.9l-3-7c9.8-4.6,19.4-6.9,29-6.9c9.8,0,17.1,2.5,21.9,7.6s7.2,13,7.2,23.7v59.2
	H809.6z M776.9,325.4c9.5,0,17-2.7,22.5-8.1c5.5-5.4,8.2-13,8.2-22.6v-8.8l-15.5,0.7c-12.5,0.6-21.4,2.6-26.7,5.9
	c-5.3,3.3-8,8.4-8,15.4c0,5.6,1.7,9.9,5.1,13C765.8,323.8,770.6,325.4,776.9,325.4z"/>
<path class="st2" d="M907,242.1v5.6l-18.4,1.1c4.9,6.1,7.4,12.8,7.4,20.1c0,8.6-2.9,15.5-8.6,20.8c-5.7,5.3-13.4,8-23,8
	c-4,0-6.9-0.2-8.5-0.5c-3.2,1.7-5.7,3.7-7.4,6c-1.7,2.3-2.5,4.7-2.5,7.3c0,2.8,1.1,4.9,3.2,6.2c2.2,1.3,5.8,2,10.8,2h15.5
	c9.7,0,17,2,22.2,5.9c5.1,3.9,7.7,9.7,7.7,17.3c0,9.4-3.8,16.6-11.4,21.7c-7.6,5.1-18.5,7.7-32.5,7.7c-11.2,0-19.8-2.2-26-6.5
	c-6.1-4.3-9.2-10.3-9.2-18c0-6.1,1.9-11.2,5.7-15.2c3.8-4,8.9-6.8,15.4-8.3c-2.7-1.1-4.8-2.8-6.4-4.9c-1.6-2.1-2.4-4.5-2.4-7.2
	c0-5.9,3.8-11.2,11.4-15.7c-5.2-2.1-9.2-5.5-12.1-10c-2.9-4.6-4.3-9.8-4.3-15.7c0-8.9,2.8-16,8.5-21.4s13.3-8.1,22.9-8.1
	c5.8,0,10.4,0.6,13.6,1.7H907z M835,346.2c0,12.2,9.1,18.3,27.3,18.3c23.4,0,35-7.4,35-22.3c0-5.3-1.8-9.2-5.5-11.6
	s-9.6-3.6-17.8-3.6h-14.6C843.1,326.9,835,333.3,835,346.2z M841.8,269.9c0,6.9,2.1,12.2,6.3,16c4.2,3.8,9.8,5.7,16.7,5.7
	c7.4,0,13.1-1.9,17.1-5.6c4-3.8,5.9-9.2,5.9-16.4c0-7.6-2-13.3-6.1-17.1c-4.1-3.8-9.8-5.7-17.1-5.7c-7.1,0-12.7,2-16.7,6.1
	C843.8,257,841.8,262.6,841.8,269.9z"/>
<path class="st2" d="M982.4,331.1v-57.7c0-8.9-1.9-15.5-5.6-19.5c-3.8-4.1-9.6-6.1-17.5-6.1c-10.6,0-18.4,2.7-23.4,8.1
	c-4.9,5.4-7.4,14.1-7.4,26.1v49.1h-8.1v-89h6.9l1.6,12.2h0.5c5.8-9.3,16.1-13.9,30.9-13.9c20.2,0,30.3,10.8,30.3,32.5v58.2H982.4z"
	/>
<path class="st2" d="M1046.4,332.7c-12.9,0-23-4-30.2-11.9c-7.2-8-10.8-19.1-10.8-33.5c0-14.2,3.5-25.5,10.5-34.1
	c7-8.5,16.4-12.8,28.2-12.8c10.5,0,18.7,3.7,24.8,11c6.1,7.3,9.1,17.2,9.1,29.8v6.5h-64.1c0.1,12.2,3,21.6,8.6,28
	c5.6,6.4,13.6,9.7,24,9.7c5.1,0,9.5-0.4,13.4-1.1c3.8-0.7,8.7-2.2,14.6-4.6v7.4c-5,2.2-9.7,3.7-13.9,4.5
	C1056.2,332.3,1051.5,332.7,1046.4,332.7z M1044,247.6c-8.6,0-15.4,2.8-20.6,8.5c-5.2,5.6-8.2,13.8-9.1,24.4h55
	c0-10.3-2.2-18.4-6.7-24.2C1058.1,250.5,1051.9,247.6,1044,247.6z"/>
<path class="st2" d="M1122.9,325.5c5.1,0,9.6-0.4,13.4-1.3v6.5c-3.9,1.3-8.5,2-13.6,2c-7.9,0-13.7-2.1-17.4-6.3
	c-3.7-4.2-5.6-10.8-5.6-19.8v-57.5h-13.2v-4.7l13.2-3.7l4.1-20.1h4.2v21.5h26.1v7H1108v56.3c0,6.8,1.2,11.9,3.6,15.1
	C1114,323.9,1117.8,325.5,1122.9,325.5z"/>
<g>
	<g>
		<path class="st2" d="M133,336.7h35.2c2.9,0,5.2-2.3,5.2-5.2v-37.1c0-2.9-2.3-5.2-5.2-5.2h-30c-2.9,0-5.2,2.3-5.2,5.2V336.7z"/>
	</g>
</g>
<path class="st2" d="M20,336.7h35.2v-42.3c0-2.9-2.3-5.2-5.2-5.2H20c-2.9,0-5.2,2.3-5.2,5.2v37.1C14.9,334.3,17.2,336.7,20,336.7z"
	/>
<path class="st0" d="M142.8,302.8c-5.4-3.9-11.9-6.2-18.5-7c-3.6-0.5-7.3-0.3-10.9,0.1c-4.8,0.6-9.6,1.6-14.1,3.2
	c4.6,2.4,9,5.5,12,9.9c2.8,4.2,4.3,9.2,4.4,14.3c0,0.2,0,0.5,0,0.7c0,0.5,0,0.9,0,1.4c-0.4-2.7-0.9-5.4-1.8-8
	c-1.4-4.1-4-7.9-7.3-10.7c-4.7-4.1-10.6-6.8-16.6-8.7c-4.9-1.5-10.1-2.6-15.3-2.6c-12.6,0-38.4,8.3-38.4,24.1v15
	c0,1.2,1,2.2,2.2,2.2c0,0,79.1,0,79.1,0H151c1.2,0,2.2-1,2.2-2.1v-15.5C152.2,312.3,148.2,306.6,142.8,302.8z"/>
</svg>
