<?xml version="1.0" encoding="utf-8"?>
<!-- Generator: Adobe Illustrator 23.0.6, SVG Export Plug-In . SVG Version: 6.00 Build 0)  -->
<svg version="1.1" id="Layer_1" xmlns="http://www.w3.org/2000/svg" xmlns:xlink="http://www.w3.org/1999/xlink" x="0px" y="0px"
	 viewBox="0 0 1152 576" style="enable-background:new 0 0 1152 576;" xml:space="preserve">
<style type="text/css">
	.st0{fill:#F26552;}
	.st1{fill:#393F51;}
	.st2{fill:#3A3F51;}
</style>
<path class="st0" d="M270.6,345.8v-97.7c0-1.9,0.4-3.4,1.3-4.3c0.9-0.9,2.3-1.4,4.2-1.4h28.6c12.8,0,22.3,2.4,28.5,7.1
	c6.2,4.7,9.3,11.8,9.3,21.2c0,5.9-1.6,11.1-4.8,15.4s-7.5,7.5-13.1,9.7v0.6c2.3,0.8,4.4,2.6,6.5,5.5c2,2.8,3.9,6.3,5.5,10.4
	l13.1,32.6c0.4,1.4,0.6,2.3,0.6,2.6c0,1.9-2.8,2.9-8.3,2.9h-4.6c-4.5,0-7.2-1-8-2.9l-12-30.1c-1.8-4.2-4-7.1-6.5-8.8
	c-2.5-1.6-6.3-2.5-11.4-2.5h-8.8v39.8c0,3-2.7,4.5-8.1,4.5h-3.8C273.3,350.2,270.6,348.8,270.6,345.8z M307.3,288.6
	c3.9,0,7.3-1.5,10.1-4.5c2.9-3,4.3-6.6,4.3-10.7c0-4.4-1.4-7.8-4.1-10.2c-2.8-2.4-6.6-3.6-11.4-3.6h-15.5v29H307.3z"/>
<path class="st0" d="M369.5,340.4c-6.2-7.1-9.4-17.3-9.4-30.6c0-13.4,3.1-23.7,9.4-30.7c6.2-7.1,15.4-10.6,27.3-10.6
	c11.9,0,20.9,3.5,27.1,10.6c6.2,7.1,9.3,17.3,9.3,30.7c0,13.4-3.1,23.6-9.3,30.6c-6.2,7-15.2,10.5-27.1,10.5
	C384.9,351,375.7,347.5,369.5,340.4z M409.4,329.1c2.7-4.2,4.1-10.7,4.1-19.4c0-8.6-1.4-15-4.1-19.3c-2.7-4.2-6.9-6.4-12.7-6.4
	c-5.7,0-10,2.1-12.7,6.4c-2.8,4.3-4.1,10.7-4.1,19.3c0,8.7,1.4,15.2,4.1,19.4c2.8,4.3,7,6.4,12.7,6.4
	C402.4,335.5,406.6,333.4,409.4,329.1z"/>
<path class="st0" d="M456.1,340.4c-6.2-7.1-9.4-17.3-9.4-30.6c0-13.4,3.1-23.7,9.4-30.7c6.2-7.1,15.4-10.6,27.3-10.6
	c11.9,0,20.9,3.5,27.1,10.6c6.2,7.1,9.3,17.3,9.3,30.7c0,13.4-3.1,23.6-9.3,30.6c-6.2,7-15.2,10.5-27.1,10.5
	C471.5,351,462.4,347.5,456.1,340.4z M496,329.1c2.7-4.2,4.1-10.7,4.1-19.4c0-8.6-1.4-15-4.1-19.3c-2.7-4.2-6.9-6.4-12.7-6.4
	c-5.7,0-10,2.1-12.7,6.4c-2.8,4.3-4.1,10.7-4.1,19.3c0,8.7,1.4,15.2,4.1,19.4c2.8,4.3,7,6.4,12.7,6.4
	C489.1,335.5,493.3,333.4,496,329.1z"/>
<path class="st0" d="M645.8,293.4v52.4c0,3-2.7,4.5-8.1,4.5h-3.1c-5.4,0-8.1-1.5-8.1-4.5V296c0-7.6-3.7-11.4-11.1-11.4
	c-3.3,0-6.1,1-8.6,3c-2.5,2-4.4,4.2-5.8,6.5v51.6c0,3-2.7,4.5-8.1,4.5h-2.9c-2.9,0-4.9-0.4-6.2-1.1c-1.3-0.7-1.9-1.8-1.9-3.4V296
	c0-7.6-3.7-11.4-11.1-11.4c-3.5,0-6.5,1.1-9.1,3.3c-2.6,2.2-4.4,4.3-5.4,6.2v51.6c0,3-2.7,4.5-8.1,4.5h-3.1c-5.4,0-8.1-1.5-8.1-4.5
	v-50.4c0-6.9-0.3-11.9-0.9-15.1c-0.6-3.2-0.9-5.1-0.9-5.8c0-1.4,1.7-2.5,5.1-3.3c3.4-0.8,6.4-1.2,9.1-1.2c1.6,0,2.8,0.7,3.5,2.2
	c0.7,1.4,1.3,2.9,1.6,4.5c0.4,1.6,0.6,2.7,0.7,3.3c2.7-3.3,6-6,10.1-8.2c4-2.2,8.4-3.3,13-3.3c10.8,0,17.7,4,20.7,12
	c2.8-3.4,6.3-6.2,10.5-8.5c4.2-2.3,8.7-3.5,13.4-3.5C638.2,268.5,645.8,276.8,645.8,293.4z"/>
<path class="st1" d="M714.6,349.9l-39.8-98.5h-0.6c0.4,6,0.6,12.2,0.6,18.5v80h-7.2V243.2h11.5l37.8,93.9h0.4l37.8-93.9h11.2v106.7
	H759v-80.9c0-5.6,0.3-11.5,0.9-17.5h-0.6l-39.9,98.4H714.6z"/>
<path class="st1" d="M839.3,349.9l-1.8-12.6h-0.6c-4,5.1-8.1,8.7-12.3,10.8c-4.2,2.1-9.2,3.2-14.9,3.2c-7.8,0-13.8-2-18.2-6
	c-4.3-4-6.5-9.5-6.5-16.6c0-7.7,3.2-13.7,9.7-18c6.4-4.3,15.8-6.5,28-6.8l15.1-0.4v-5.3c0-7.5-1.5-13.2-4.6-17.1
	c-3.1-3.8-8-5.8-14.8-5.8c-7.3,0-15,2-22.8,6.1l-2.7-6.3c8.7-4.1,17.3-6.1,25.8-6.1c8.7,0,15.2,2.3,19.5,6.8s6.5,11.6,6.5,21.2v52.8
	H839.3z M810.1,344.8c8.5,0,15.1-2.4,20-7.3s7.3-11.6,7.3-20.2v-7.8l-13.9,0.6c-11.1,0.5-19.1,2.3-23.8,5.2
	c-4.7,2.9-7.1,7.5-7.1,13.8c0,5,1.5,8.8,4.6,11.6C800.2,343.4,804.5,344.8,810.1,344.8z"/>
<path class="st1" d="M930.7,270.6v5l-16.4,1c4.4,5.4,6.6,11.4,6.6,18c0,7.6-2.5,13.8-7.6,18.6c-5.1,4.7-11.9,7.1-20.5,7.1
	c-3.6,0-6.1-0.1-7.6-0.4c-2.9,1.5-5.1,3.3-6.6,5.3c-1.5,2-2.3,4.2-2.3,6.5c0,2.5,1,4.4,2.9,5.5c1.9,1.2,5.1,1.8,9.7,1.8h13.9
	c8.6,0,15.2,1.7,19.8,5.2c4.6,3.5,6.9,8.6,6.9,15.4c0,8.4-3.4,14.8-10.2,19.4c-6.8,4.5-16.5,6.8-29,6.8c-10,0-17.7-1.9-23.2-5.8
	c-5.5-3.8-8.2-9.2-8.2-16.1c0-5.4,1.7-10,5.1-13.6c3.4-3.6,8-6.1,13.8-7.4c-2.4-1-4.3-2.5-5.7-4.3c-1.4-1.9-2.2-4-2.2-6.5
	c0-5.3,3.4-10,10.1-14c-4.6-1.9-8.2-4.9-10.8-8.9c-2.6-4.1-3.9-8.7-3.9-14c0-7.9,2.5-14.3,7.6-19.1s11.8-7.2,20.4-7.2
	c5.2,0,9.2,0.5,12.1,1.5H930.7z M866.5,363.4c0,10.9,8.1,16.3,24.3,16.3c20.8,0,31.2-6.6,31.2-19.9c0-4.8-1.6-8.2-4.9-10.4
	c-3.3-2.1-8.5-3.2-15.8-3.2h-13C873.7,346.2,866.5,351.9,866.5,363.4z M872.5,295.3c0,6.1,1.9,10.9,5.6,14.3
	c3.7,3.4,8.7,5.1,14.9,5.1c6.6,0,11.7-1.7,15.2-5c3.5-3.4,5.3-8.2,5.3-14.6c0-6.8-1.8-11.8-5.4-15.2s-8.7-5.1-15.2-5.1
	c-6.3,0-11.3,1.8-14.9,5.4S872.5,288.9,872.5,295.3z"/>
<path class="st1" d="M1001.5,349.9v-51.5c0-8-1.7-13.8-5-17.4s-8.6-5.4-15.6-5.4c-9.5,0-16.4,2.4-20.8,7.2s-6.6,12.6-6.6,23.3v43.8
	h-7.2v-79.3h6.1l1.4,10.9h0.4c5.2-8.3,14.3-12.4,27.5-12.4c18,0,27,9.7,27,29v51.9H1001.5z"/>
<path class="st1" d="M1064.9,351.4c-11.5,0-20.5-3.6-27-10.7c-6.4-7.1-9.7-17.1-9.7-29.8c0-12.6,3.1-22.8,9.3-30.4
	c6.2-7.6,14.6-11.4,25.2-11.4c9.3,0,16.7,3.3,22.1,9.8c5.4,6.5,8.1,15.4,8.1,26.6v5.8h-57.1c0.1,10.9,2.6,19.2,7.6,25
	c5,5.7,12.1,8.6,21.4,8.6c4.5,0,8.5-0.3,11.9-0.9c3.4-0.6,7.8-2,13-4.1v6.6c-4.5,1.9-8.6,3.3-12.4,4
	C1073.7,351,1069.5,351.4,1064.9,351.4z M1062.8,275.5c-7.6,0-13.8,2.5-18.4,7.6c-4.6,5-7.3,12.3-8.1,21.8h49c0-9.2-2-16.4-6-21.6
	S1069.8,275.5,1062.8,275.5z"/>
<path class="st1" d="M1135.8,345c4.6,0,8.6-0.4,12-1.2v5.8c-3.5,1.2-7.5,1.8-12.1,1.8c-7,0-12.2-1.9-15.5-5.6s-5-9.6-5-17.7v-51.2
	h-11.7v-4.2l11.7-3.3l3.6-18h3.7v19.2h23.3v6.3h-23.3v50.2c0,6.1,1.1,10.6,3.2,13.5S1131.3,345,1135.8,345z"/>
<path class="st2" d="M138.7,295.9c-3.3-3.7-5-9.1-5-16.2c0-7.1,1.7-12.5,5-16.3c3.3-3.7,8.1-5.6,14.5-5.6c6.3,0,11.1,1.9,14.4,5.6
	c3.3,3.7,4.9,9.2,4.9,16.3c0,7.1-1.6,12.5-4.9,16.2c-3.3,3.7-8.1,5.6-14.4,5.6C146.8,301.5,142,299.6,138.7,295.9z"/>
<path class="st2" d="M95.1,295.9c-3.3-3.7-5-9.1-5-16.2c0-7.1,1.7-12.5,5-16.3c3.3-3.7,8.1-5.6,14.5-5.6c6.3,0,11.1,1.9,14.4,5.6
	c3.3,3.7,4.9,9.2,4.9,16.3c0,7.1-1.6,12.5-4.9,16.2c-3.3,3.7-8.1,5.6-14.4,5.6C103.3,301.5,98.4,299.6,95.1,295.9z"/>
<g>
	<g>
		<path class="st0" d="M129.5,147.2c-61.9,0-104.3,43.6-104.3,110.5v21.2c0,3.7,3,6.7,6.7,6.7h39.1c3.7,0,6.7-3,6.7-6.7v-21.2
			c0-30.9,23.2-55.9,51.7-55.9s51.7,25,51.7,55.9v21.2c0,3.7,3,6.7,6.7,6.7H227c3.7,0,6.7-3,6.7-6.7v-21.2
			C233.8,190.8,191.4,147.2,129.5,147.2z"/>
	</g>
</g>
<g>
	<g>
		<path class="st1" d="M181.2,350.8H227c3.7,0,6.7-3,6.7-6.7v-48.3c0-3.7-3-6.7-6.7-6.7h-39.1c-3.7,0-6.7,3-6.7,6.7V350.8z"/>
	</g>
</g>
<path class="st1" d="M33.9,350.8h45.9v-55.1c0-3.7-3-6.7-6.7-6.7H33.9c-3.7,0-6.7,3-6.7,6.7v48.3C27.2,347.8,30.2,350.8,33.9,350.8z
	"/>
<path class="st2" d="M194,306.7c-7-5.1-15.5-8-24.1-9.1c-4.7-0.6-9.5-0.4-14.2,0.1c-6.2,0.7-12.5,2.1-18.3,4.2
	c6,3.2,11.8,7.2,15.6,12.9c3.7,5.5,5.6,12,5.7,18.6c0,0.3,0,0.6,0,0.9c0,0.6,0,1.2,0,1.8c-0.6-3.5-1.1-7.1-2.3-10.5
	c-1.9-5.4-5.3-10.2-9.5-14c-6.1-5.4-13.8-8.9-21.6-11.3c-6.4-2-13.2-3.4-19.9-3.4c-16.4,0-50,10.8-50,31.5v19.6
	c0,1.6,1.3,2.9,2.9,2.9c0,0,103,0,103,0h43.3c1.6,0,2.9-1.3,2.9-2.8v-20.3C206.1,319,201,311.7,194,306.7z"/>
</svg>
