<?xml version="1.0" encoding="utf-8"?>
<!-- Generator: Adobe Illustrator 23.0.6, SVG Export Plug-In . SVG Version: 6.00 Build 0)  -->
<svg version="1.1" id="Layer_1" xmlns="http://www.w3.org/2000/svg" xmlns:xlink="http://www.w3.org/1999/xlink" x="0px" y="0px"
	 viewBox="0 0 576 576" style="enable-background:new 0 0 576 576;" xml:space="preserve">
<style type="text/css">
	.st0{fill:#3A3F51;}
	.st1{fill:#F26552;}
	.st2{fill:#393F51;}
</style>
<g>
	<path class="st0" d="M288.4,265.4c-4.7-5.3-7-12.9-7-22.8c0-10,2.3-17.6,7-22.9c4.7-5.3,11.4-7.9,20.4-7.9c8.9,0,15.6,2.6,20.2,7.9
		c4.6,5.3,6.9,12.9,6.9,22.9c0,10-2.3,17.6-6.9,22.8c-4.6,5.2-11.4,7.8-20.2,7.8C299.9,273.3,293.1,270.7,288.4,265.4z"/>
	<path class="st0" d="M227.2,265.4c-4.7-5.3-7-12.9-7-22.8c0-10,2.3-17.6,7-22.9c4.7-5.3,11.4-7.9,20.4-7.9c8.9,0,15.6,2.6,20.2,7.9
		c4.6,5.3,6.9,12.9,6.9,22.9c0,10-2.3,17.6-6.9,22.8c-4.6,5.2-11.4,7.8-20.2,7.8C238.6,273.3,231.8,270.7,227.2,265.4z"/>
	<g>
		<g>
			<path class="st1" d="M275.5,56.2c-87,0-146.7,61.3-146.7,155.4v29.9c0,5.2,4.2,9.5,9.5,9.5h55c5.2,0,9.5-4.2,9.5-9.5v-29.9
				c0-43.4,32.6-78.6,72.7-78.6s72.7,35.2,72.7,78.6v29.9c0,5.2,4.2,9.5,9.5,9.5h55c5.2,0,9.5-4.2,9.5-9.5v-29.9
				C422.2,117.6,362.5,56.2,275.5,56.2z"/>
		</g>
	</g>
	<g>
		<g>
			<path class="st2" d="M348.2,342.7h64.5c5.2,0,9.5-4.2,9.5-9.5v-68c0-5.2-4.2-9.5-9.5-9.5h-55c-5.2,0-9.5,4.2-9.5,9.5V342.7z"/>
		</g>
	</g>
	<path class="st2" d="M138.3,342.7h64.5v-77.4c0-5.2-4.2-9.5-9.5-9.5h-55c-5.2,0-9.5,4.2-9.5,9.5v68
		C128.8,338.5,133.1,342.7,138.3,342.7z"/>
	<path class="st0" d="M366.2,280.6c-9.9-7.1-21.9-11.3-33.9-12.8c-6.6-0.8-13.3-0.6-19.9,0.2c-8.7,1-17.5,2.9-25.8,5.8
		c8.4,4.5,16.5,10.1,21.9,18.2c5.1,7.7,7.8,16.9,8,26.2c0,0.4,0,0.8,0,1.3c0,0.8,0,1.7,0,2.5c-0.8-5-1.6-9.9-3.2-14.7
		c-2.6-7.6-7.4-14.4-13.4-19.7c-8.6-7.6-19.5-12.5-30.3-15.9c-9-2.8-18.5-4.8-28-4.8c-23.1,0-70.3,15.2-70.3,44.2v27.5
		c0,2.3,1.8,4.1,4.1,4.1c0,0,144.9,0,144.9,0h60.9c2.3,0,4.1-1.8,4.1-3.9v-28.5C383.3,298,376,287.7,366.2,280.6z"/>
</g>
<g>
	<path class="st1" d="M2,428.9v-63.4c0-1.3,0.3-2.2,0.8-2.8c0.6-0.6,1.5-0.9,2.7-0.9h18.6c8.3,0,14.5,1.5,18.5,4.6
		c4,3.1,6,7.6,6,13.8c0,3.9-1,7.2-3.1,10c-2.1,2.8-4.9,4.9-8.5,6.3v0.4c1.5,0.5,2.9,1.7,4.2,3.5c1.3,1.8,2.5,4.1,3.6,6.7l8.5,21.1
		c0.3,0.9,0.4,1.5,0.4,1.7c0,1.3-1.8,1.9-5.4,1.9h-3c-2.9,0-4.7-0.6-5.2-1.9l-7.8-19.5c-1.2-2.7-2.6-4.6-4.2-5.7
		c-1.6-1.1-4.1-1.6-7.4-1.6h-5.7v25.8c0,1.9-1.8,2.9-5.3,2.9H7.3C3.8,431.8,2,430.8,2,428.9z M25.8,391.8c2.5,0,4.7-1,6.6-2.9
		c1.9-2,2.8-4.3,2.8-6.9c0-2.9-0.9-5.1-2.7-6.6c-1.8-1.6-4.3-2.3-7.4-2.3H15.1v18.9H25.8z"/>
	<path class="st1" d="M66.2,425.4c-4.1-4.6-6.1-11.2-6.1-19.8c0-8.7,2-15.4,6.1-19.9c4.1-4.6,10-6.9,17.8-6.9
		c7.7,0,13.6,2.3,17.6,6.9c4,4.6,6,11.2,6,19.9c0,8.7-2,15.3-6,19.9c-4,4.6-9.9,6.8-17.6,6.8C76.2,432.3,70.3,430,66.2,425.4z
		 M92.1,418.1c1.8-2.8,2.6-7,2.6-12.6c0-5.6-0.9-9.8-2.6-12.5c-1.8-2.8-4.5-4.1-8.2-4.1c-3.7,0-6.5,1.4-8.3,4.1
		c-1.8,2.8-2.7,6.9-2.7,12.5c0,5.7,0.9,9.9,2.7,12.6c1.8,2.8,4.6,4.1,8.3,4.1C87.6,422.2,90.4,420.8,92.1,418.1z"/>
	<path class="st1" d="M122.5,425.4c-4.1-4.6-6.1-11.2-6.1-19.8c0-8.7,2-15.4,6.1-19.9c4.1-4.6,10-6.9,17.8-6.9
		c7.7,0,13.6,2.3,17.6,6.9c4,4.6,6,11.2,6,19.9c0,8.7-2,15.3-6,19.9c-4,4.6-9.9,6.8-17.6,6.8C132.5,432.3,126.5,430,122.5,425.4z
		 M148.4,418.1c1.8-2.8,2.6-7,2.6-12.6c0-5.6-0.9-9.8-2.6-12.5c-1.8-2.8-4.5-4.1-8.2-4.1c-3.7,0-6.5,1.4-8.3,4.1
		c-1.8,2.8-2.7,6.9-2.7,12.5c0,5.7,0.9,9.9,2.7,12.6c1.8,2.8,4.6,4.1,8.3,4.1C143.9,422.2,146.6,420.8,148.4,418.1z"/>
	<path class="st1" d="M245.7,394.9v34c0,1.9-1.8,2.9-5.3,2.9h-2c-3.5,0-5.3-1-5.3-2.9v-32.3c0-4.9-2.4-7.4-7.2-7.4
		c-2.1,0-4,0.6-5.6,1.9c-1.6,1.3-2.9,2.7-3.8,4.2v33.5c0,1.9-1.8,2.9-5.3,2.9h-1.9c-1.9,0-3.2-0.2-4-0.7c-0.8-0.5-1.2-1.2-1.2-2.2
		v-32.3c0-4.9-2.4-7.4-7.2-7.4c-2.3,0-4.2,0.7-5.9,2.1c-1.7,1.4-2.8,2.8-3.5,4v33.5c0,1.9-1.8,2.9-5.3,2.9h-2c-3.5,0-5.3-1-5.3-2.9
		v-32.7c0-4.5-0.2-7.7-0.6-9.8c-0.4-2.1-0.6-3.3-0.6-3.8c0-0.9,1.1-1.6,3.3-2.1c2.2-0.5,4.2-0.7,5.9-0.7c1.1,0,1.8,0.5,2.3,1.4
		c0.5,0.9,0.8,1.9,1,2.9c0.2,1,0.4,1.7,0.4,2.1c1.7-2.1,3.9-3.9,6.5-5.3c2.6-1.4,5.4-2.1,8.4-2.1c7,0,11.5,2.6,13.5,7.8
		c1.8-2.2,4.1-4,6.8-5.5c2.8-1.5,5.7-2.2,8.7-2.2C240.7,378.7,245.7,384.1,245.7,394.9z"/>
	<path class="st2" d="M290.3,431.6l-25.8-64h-0.4c0.3,3.9,0.4,7.9,0.4,12v51.9h-4.6v-69.3h7.5l24.5,60.9h0.3l24.5-60.9h7.3v69.3
		h-4.9v-52.5c0-3.7,0.2-7.5,0.6-11.4h-0.4l-25.9,63.9H290.3z"/>
	<path class="st2" d="M372.7,431.6l-1.2-8.2h-0.4c-2.6,3.3-5.3,5.7-8,7s-6,2.1-9.7,2.1c-5.1,0-9-1.3-11.8-3.9s-4.2-6.2-4.2-10.8
		c0-5,2.1-8.9,6.3-11.7s10.2-4.2,18.2-4.4l9.8-0.3v-3.4c0-4.9-1-8.6-3-11.1s-5.2-3.7-9.6-3.7c-4.8,0-9.7,1.3-14.8,4l-1.8-4.1
		c5.7-2.7,11.2-4,16.8-4c5.7,0,9.9,1.5,12.7,4.4c2.8,2.9,4.2,7.5,4.2,13.7v34.3H372.7z M353.8,428.2c5.5,0,9.8-1.6,13-4.7
		c3.2-3.1,4.8-7.5,4.8-13.1v-5.1l-9,0.4c-7.2,0.3-12.4,1.5-15.5,3.4c-3.1,1.9-4.6,4.9-4.6,8.9c0,3.2,1,5.7,3,7.5
		C347.4,427.4,350.2,428.2,353.8,428.2z"/>
	<path class="st2" d="M432.1,380.1v3.3l-10.7,0.7c2.8,3.5,4.3,7.4,4.3,11.7c0,5-1.7,9-5,12.1c-3.3,3.1-7.7,4.6-13.3,4.6
		c-2.3,0-4-0.1-4.9-0.3c-1.9,1-3.3,2.1-4.3,3.5c-1,1.3-1.5,2.7-1.5,4.2c0,1.6,0.6,2.8,1.9,3.6c1.2,0.8,3.3,1.1,6.3,1.1h9
		c5.6,0,9.9,1.1,12.8,3.4s4.5,5.6,4.5,10c0,5.4-2.2,9.6-6.6,12.6s-10.7,4.4-18.8,4.4c-6.5,0-11.5-1.2-15-3.7
		c-3.6-2.5-5.3-6-5.3-10.4c0-3.5,1.1-6.5,3.3-8.8c2.2-2.3,5.2-3.9,8.9-4.8c-1.5-0.7-2.8-1.6-3.7-2.8s-1.4-2.6-1.4-4.2
		c0-3.4,2.2-6.5,6.6-9.1c-3-1.2-5.3-3.2-7-5.8c-1.7-2.6-2.5-5.7-2.5-9.1c0-5.1,1.6-9.3,4.9-12.4c3.3-3.1,7.7-4.7,13.2-4.7
		c3.4,0,6,0.3,7.9,1H432.1z M390.4,440.3c0,7.1,5.3,10.6,15.8,10.6c13.5,0,20.3-4.3,20.3-12.9c0-3.1-1.1-5.3-3.2-6.7
		c-2.1-1.4-5.5-2.1-10.3-2.1h-8.4C395.1,429.2,390.4,432.9,390.4,440.3z M394.3,396.1c0,4,1.2,7.1,3.6,9.3c2.4,2.2,5.6,3.3,9.7,3.3
		c4.3,0,7.6-1.1,9.9-3.3c2.3-2.2,3.4-5.3,3.4-9.5c0-4.4-1.2-7.7-3.5-9.9c-2.4-2.2-5.6-3.3-9.9-3.3c-4.1,0-7.3,1.2-9.7,3.5
		C395.5,388.6,394.3,391.9,394.3,396.1z"/>
	<path class="st2" d="M478.1,431.6v-33.4c0-5.2-1.1-8.9-3.3-11.3c-2.2-2.4-5.6-3.5-10.1-3.5c-6.2,0-10.7,1.6-13.5,4.7
		s-4.3,8.2-4.3,15.1v28.4h-4.7v-51.5h4l0.9,7.1h0.3c3.3-5.4,9.3-8.1,17.9-8.1c11.7,0,17.5,6.3,17.5,18.8v33.7H478.1z"/>
	<path class="st2" d="M519.2,432.5c-7.5,0-13.3-2.3-17.5-6.9c-4.2-4.6-6.3-11.1-6.3-19.4c0-8.2,2-14.8,6.1-19.7
		c4-4.9,9.5-7.4,16.3-7.4c6.1,0,10.9,2.1,14.4,6.3c3.5,4.2,5.3,10,5.3,17.2v3.8h-37.1c0.1,7.1,1.7,12.5,5,16.2
		c3.2,3.7,7.9,5.6,13.9,5.6c2.9,0,5.5-0.2,7.7-0.6c2.2-0.4,5-1.3,8.5-2.7v4.3c-2.9,1.3-5.6,2.1-8.1,2.6
		C524.9,432.3,522.2,432.5,519.2,432.5z M517.8,383.2c-5,0-8.9,1.6-11.9,4.9s-4.8,8-5.3,14.1h31.8c0-6-1.3-10.6-3.9-14
		S522.4,383.2,517.8,383.2z"/>
	<path class="st2" d="M565.3,428.3c3,0,5.6-0.3,7.8-0.8v3.8c-2.3,0.8-4.9,1.1-7.9,1.1c-4.5,0-7.9-1.2-10.1-3.6
		c-2.2-2.4-3.2-6.3-3.2-11.5v-33.3h-7.6v-2.7l7.6-2.1l2.4-11.7h2.4v12.5h15.1v4.1h-15.1v32.6c0,3.9,0.7,6.9,2.1,8.8
		C560.1,427.4,562.3,428.3,565.3,428.3z"/>
</g>
</svg>
