<?xml version="1.0" encoding="utf-8"?>
<!-- Generator: Adobe Illustrator 23.0.6, SVG Export Plug-In . SVG Version: 6.00 Build 0)  -->
<svg version="1.1" id="Layer_1" xmlns="http://www.w3.org/2000/svg" xmlns:xlink="http://www.w3.org/1999/xlink" x="0px" y="0px"
	 viewBox="0 0 612 792" style="enable-background:new 0 0 612 792;" xml:space="preserve">
<style type="text/css">
	.st0{fill:#3A3F51;}
	.st1{fill:#F26552;}
	.st2{fill:#393F51;}
</style>
<path class="st0" d="M309.9,333.3c-5-5.7-7.5-13.9-7.5-24.6c0-10.8,2.5-19,7.5-24.7c5-5.7,12.4-8.5,22-8.5c9.6,0,16.8,2.8,21.8,8.5
	c5,5.7,7.5,13.9,7.5,24.7c0,10.8-2.5,19-7.5,24.6c-5,5.6-12.3,8.5-21.8,8.5C322.3,341.8,315,339,309.9,333.3z"/>
<path class="st0" d="M243.8,333.3c-5-5.7-7.5-13.9-7.5-24.6c0-10.8,2.5-19,7.5-24.7c5-5.7,12.4-8.5,22-8.5c9.6,0,16.8,2.8,21.8,8.5
	c5,5.7,7.5,13.9,7.5,24.7c0,10.8-2.5,19-7.5,24.6c-5,5.6-12.3,8.5-21.8,8.5C256.2,341.8,248.9,339,243.8,333.3z"/>
<g>
	<path class="st1" d="M49.5,498v-58.7c0-1.2,0.3-2,0.8-2.6c0.5-0.6,1.4-0.8,2.5-0.8H70c7.7,0,13.4,1.4,17.1,4.2
		c3.7,2.8,5.6,7.1,5.6,12.7c0,3.6-1,6.6-2.9,9.2s-4.5,4.5-7.8,5.8v0.4c1.4,0.5,2.6,1.6,3.9,3.3c1.2,1.7,2.3,3.8,3.3,6.2l7.8,19.6
		c0.2,0.9,0.4,1.4,0.4,1.6c0,1.2-1.7,1.8-5,1.8h-2.8c-2.7,0-4.3-0.6-4.8-1.8l-7.2-18.1c-1.1-2.5-2.4-4.3-3.9-5.3
		c-1.5-1-3.8-1.5-6.9-1.5h-5.3V498c0,1.8-1.6,2.7-4.9,2.7h-2.3C51.1,500.7,49.5,499.8,49.5,498z M71.6,463.7c2.3,0,4.4-0.9,6.1-2.7
		c1.7-1.8,2.6-4,2.6-6.4c0-2.6-0.8-4.7-2.5-6.1c-1.7-1.4-3.9-2.2-6.8-2.2h-9.3v17.5H71.6z"/>
	<path class="st1" d="M109,494.8c-3.8-4.2-5.6-10.4-5.6-18.4c0-8.1,1.9-14.2,5.6-18.5c3.8-4.2,9.2-6.4,16.4-6.4
		c7.1,0,12.6,2.1,16.3,6.4c3.7,4.2,5.6,10.4,5.6,18.5c0,8.1-1.9,14.2-5.6,18.4c-3.7,4.2-9.2,6.3-16.3,6.3
		C118.2,501.1,112.7,499,109,494.8z M132.9,488c1.6-2.6,2.4-6.4,2.4-11.7c0-5.2-0.8-9-2.4-11.6c-1.6-2.6-4.2-3.8-7.6-3.8
		c-3.4,0-6,1.3-7.7,3.8c-1.7,2.6-2.5,6.4-2.5,11.6c0,5.2,0.8,9.1,2.5,11.7c1.7,2.6,4.2,3.8,7.7,3.8
		C128.8,491.8,131.3,490.5,132.9,488z"/>
	<path class="st1" d="M161,494.8c-3.8-4.2-5.6-10.4-5.6-18.4c0-8.1,1.9-14.2,5.6-18.5c3.8-4.2,9.2-6.4,16.4-6.4
		c7.1,0,12.6,2.1,16.3,6.4c3.7,4.2,5.6,10.4,5.6,18.5c0,8.1-1.9,14.2-5.6,18.4c-3.7,4.2-9.2,6.3-16.3,6.3
		C170.3,501.1,164.8,499,161,494.8z M185,488c1.6-2.6,2.4-6.4,2.4-11.7c0-5.2-0.8-9-2.4-11.6c-1.6-2.6-4.2-3.8-7.6-3.8
		c-3.4,0-6,1.3-7.7,3.8c-1.7,2.6-2.5,6.4-2.5,11.6c0,5.2,0.8,9.1,2.5,11.7c1.7,2.6,4.2,3.8,7.7,3.8C180.8,491.8,183.4,490.5,185,488
		z"/>
	<path class="st1" d="M275.1,466.5V498c0,1.8-1.6,2.7-4.9,2.7h-1.8c-3.3,0-4.9-0.9-4.9-2.7v-29.9c0-4.6-2.2-6.8-6.6-6.8
		c-2,0-3.7,0.6-5.2,1.8c-1.5,1.2-2.6,2.5-3.5,3.9v31c0,1.8-1.6,2.7-4.9,2.7h-1.8c-1.7,0-3-0.2-3.7-0.6c-0.8-0.4-1.2-1.1-1.2-2v-29.9
		c0-4.6-2.2-6.8-6.6-6.8c-2.1,0-3.9,0.7-5.4,2c-1.5,1.3-2.6,2.6-3.2,3.7v31c0,1.8-1.6,2.7-4.9,2.7h-1.8c-3.3,0-4.9-0.9-4.9-2.7
		v-30.3c0-4.1-0.2-7.1-0.6-9.1c-0.4-1.9-0.6-3.1-0.6-3.5c0-0.9,1-1.5,3-2c2-0.5,3.8-0.7,5.4-0.7c1,0,1.7,0.4,2.1,1.3
		c0.4,0.9,0.8,1.8,1,2.7c0.2,1,0.4,1.6,0.4,2c1.6-2,3.6-3.6,6-4.9c2.4-1.3,5-2,7.8-2c6.5,0,10.6,2.4,12.5,7.2c1.7-2,3.8-3.7,6.3-5.1
		c2.6-1.4,5.2-2.1,8.1-2.1C270.5,451.6,275.1,456.5,275.1,466.5z"/>
	<path class="st2" d="M316.4,500.5l-23.9-59.2h-0.4c0.2,3.6,0.4,7.3,0.4,11.1v48.1h-4.3v-64.1h6.9l22.7,56.4h0.3l22.7-56.4h6.8v64.1
		h-4.5v-48.6c0-3.4,0.2-6.9,0.5-10.5h-0.4l-24,59.1H316.4z"/>
	<path class="st2" d="M392.7,500.5l-1.1-7.5h-0.4c-2.4,3.1-4.9,5.2-7.4,6.5c-2.5,1.3-5.5,1.9-9,1.9c-4.7,0-8.3-1.2-10.9-3.6
		c-2.6-2.4-3.9-5.7-3.9-10c0-4.7,1.9-8.3,5.8-10.8s9.5-3.9,16.8-4.1l9.1-0.3v-3.2c0-4.5-0.9-8-2.8-10.3c-1.8-2.3-4.8-3.5-8.9-3.5
		c-4.4,0-9,1.2-13.7,3.7l-1.6-3.8c5.2-2.5,10.4-3.7,15.5-3.7c5.2,0,9.1,1.4,11.7,4.1c2.6,2.7,3.9,7,3.9,12.7v31.7H392.7z
		 M375.2,497.4c5.1,0,9.1-1.5,12-4.4c2.9-2.9,4.4-7,4.4-12.1v-4.7l-8.3,0.4c-6.7,0.3-11.5,1.4-14.3,3.1c-2.9,1.8-4.3,4.5-4.3,8.3
		c0,3,0.9,5.3,2.7,7C369.2,496.6,371.8,497.4,375.2,497.4z"/>
	<path class="st2" d="M447.6,452.8v3l-9.9,0.6c2.6,3.3,3.9,6.9,3.9,10.8c0,4.6-1.5,8.3-4.6,11.2s-7.2,4.3-12.3,4.3
		c-2.2,0-3.7-0.1-4.6-0.3c-1.7,0.9-3,2-3.9,3.2c-0.9,1.2-1.4,2.5-1.4,3.9c0,1.5,0.6,2.6,1.7,3.3c1.2,0.7,3.1,1.1,5.8,1.1h8.3
		c5.2,0,9.1,1,11.9,3.1s4.1,5.2,4.1,9.3c0,5-2,8.9-6.1,11.6c-4.1,2.7-9.9,4.1-17.4,4.1c-6,0-10.6-1.2-13.9-3.5
		c-3.3-2.3-4.9-5.5-4.9-9.7c0-3.3,1-6,3-8.2c2-2.2,4.8-3.6,8.3-4.4c-1.4-0.6-2.6-1.5-3.4-2.6c-0.9-1.1-1.3-2.4-1.3-3.9
		c0-3.2,2-6,6.1-8.4c-2.8-1.1-4.9-2.9-6.5-5.4c-1.6-2.4-2.3-5.2-2.3-8.4c0-4.8,1.5-8.6,4.5-11.5s7.1-4.3,12.3-4.3
		c3.1,0,5.6,0.3,7.3,0.9H447.6z M409,508.6c0,6.6,4.9,9.8,14.6,9.8c12.5,0,18.8-4,18.8-12c0-2.9-1-4.9-2.9-6.2s-5.1-1.9-9.5-1.9
		h-7.8C413.4,498.3,409,501.7,409,508.6z M412.7,467.7c0,3.7,1.1,6.5,3.4,8.6c2.2,2,5.2,3,9,3c4,0,7-1,9.1-3c2.1-2,3.2-4.9,3.2-8.8
		c0-4.1-1.1-7.1-3.3-9.1c-2.2-2-5.2-3-9.1-3c-3.8,0-6.8,1.1-9,3.3S412.7,463.8,412.7,467.7z"/>
	<path class="st2" d="M490.2,500.5v-30.9c0-4.8-1-8.3-3-10.5s-5.1-3.3-9.4-3.3c-5.7,0-9.9,1.4-12.5,4.3c-2.6,2.9-4,7.6-4,14v26.3
		H457v-47.7h3.7l0.8,6.5h0.3c3.1-5,8.6-7.5,16.5-7.5c10.8,0,16.2,5.8,16.2,17.4v31.2H490.2z"/>
	<path class="st2" d="M528.3,501.4c-6.9,0-12.3-2.1-16.2-6.4c-3.9-4.3-5.8-10.3-5.8-17.9c0-7.6,1.9-13.7,5.6-18.3
		c3.7-4.6,8.8-6.9,15.1-6.9c5.6,0,10,2,13.3,5.9c3.2,3.9,4.9,9.2,4.9,16v3.5h-34.4c0.1,6.6,1.6,11.6,4.6,15s7.3,5.2,12.9,5.2
		c2.7,0,5.1-0.2,7.2-0.6c2.1-0.4,4.7-1.2,7.8-2.5v3.9c-2.7,1.2-5.2,2-7.5,2.4S531.1,501.4,528.3,501.4z M527.1,455.8
		c-4.6,0-8.3,1.5-11.1,4.5c-2.8,3-4.4,7.4-4.9,13.1h29.5c0-5.5-1.2-9.8-3.6-13S531.3,455.8,527.1,455.8z"/>
	<path class="st2" d="M571,497.5c2.7,0,5.1-0.2,7.2-0.7v3.5c-2.1,0.7-4.5,1.1-7.3,1.1c-4.2,0-7.3-1.1-9.3-3.4c-2-2.3-3-5.8-3-10.6
		v-30.8h-7.1V454l7.1-2l2.2-10.8h2.2v11.5h14v3.8h-14v30.2c0,3.7,0.6,6.4,1.9,8.1S568.2,497.5,571,497.5z"/>
</g>
<g>
	<g>
		<path class="st1" d="M296,107.6c-93.9,0-158.2,66.2-158.2,167.7v38.9c0,1.9,1.6,3.5,3.5,3.5H214c1.9,0,3.5-1.6,3.5-3.5v-38.9
			c0-46.9,35.1-84.8,78.5-84.8s78.5,38,78.5,84.8v38.9c0,1.9,1.6,3.5,3.5,3.5h72.7c1.9,0,3.5-1.6,3.5-3.5v-38.9
			C454.2,173.8,389.9,107.6,296,107.6z"/>
	</g>
</g>
<g>
	<g>
		<path class="st2" d="M374.4,416.7h76.3c1.9,0,3.5-1.6,3.5-3.5v-86.7c0-1.9-1.6-3.5-3.5-3.5H378c-1.9,0-3.5,1.6-3.5,3.5V416.7z"/>
	</g>
</g>
<path class="st2" d="M141.3,416.7h76.3v-90.3c0-1.9-1.6-3.5-3.5-3.5h-72.8c-1.9,0-3.5,1.6-3.5,3.5v86.7
	C137.7,415.1,139.3,416.7,141.3,416.7z"/>
<path class="st0" d="M259.4,334.8c-24.9,0-75.9,16.4-75.9,47.7v29.7c0,2.4,2,4.4,4.4,4.4c0,0,156.4,0,156.4,0
	c1.2,0-1.5-9.7-1.7-10.4c-2.5-9.1-2.7-18.8-5.8-27.8c-2.8-8.1-8-15.5-14.4-21.2c-9.3-8.2-21-13.5-32.7-17.2
	C279.9,336.9,269.6,334.8,259.4,334.8z"/>
<path class="st0" d="M328,336.9c-4.2,0.6-20.1,5.4-20.1,5.4s3.8,2,4.7,2.6c2.1,1.4,4.3,2.6,6.4,4c13.5,9.6,20.9,24.8,21.3,41.3
	c0,0.4,0,0.9,0,1.3c0,1,0,2,0,3c-0.1,5.9-0.4,11.8-0.4,17.8c0,2.3,2,4.3,4.4,4.3h65.7c2.4,0,4.4-1.9,4.4-4.3c0,0,0-30.7,0-30.7
	c-2-13.1-9.9-24.2-20.5-31.9c-10.7-7.7-23.6-12.2-36.6-13.8c-7.1-0.9-14.4-0.7-21.5,0.2C333.2,336.3,330.6,336.6,328,336.9z"/>
</svg>
